<svg xmlns="http://www.w3.org/2000/svg" viewBox="0 0 300.11 299.99"><title>adafruit_1</title><g id="Layer_2" data-name="Layer 2"><g id="Layer_1-2" data-name="Layer 1"><path d="M213,300h-6c-2-1.27-4-2.44-5.9-3.82-14.54-10.58-29.2-21-43.53-31.87-11.32-8.58-20-19.28-22.85-33.65-.8-4-.84-8.1-1.26-12.43-.38.48-.7.71-.78,1-5.41,18.89-19.27,29.2-36.7,35.52C82.85,259.5,69.48,263.61,56.2,268c-5,1.62-9.93,3.42-15,4.58-8.52,1.93-14.84-4.27-13.42-12.92a47.39,47.39,0,0,1,1.87-6.86c5.14-15.78,10.09-31.62,15.54-47.29,6.38-18.31,17-32.8,36.9-38.13.32-.08.64-.14,1-.21-4.11-.68-7.75-.58-11.3-1.11-14.26-2.13-25.45-9.89-33.93-21C24.75,128.05,12.56,110.38,0,93V87.74c2.18-6,6.39-9,12.82-8.9,20.24.22,40.5-.13,60.71.73,14,.59,26.58,5.69,36.24,16.45,1.9,2.11,3.49,4.49,5.11,6.6-1-5.41-2.64-10.86-2.84-16.37-.48-13.76,4.66-25.87,12.5-36.93,5-7.14,10.19-14.21,15.32-21.3,5.65-7.79,11.28-15.59,17-23.31,2.26-3,5.2-4.91,9.27-4.69,6.08.31,9,2.69,11.51,10.41C183.17,27.28,188.71,44.11,194,61c3.77,12.15,5,24.58.76,36.83-1.91,5.53-5.17,10.59-7.74,15.7-.24,0,0,.08.2,0a9.29,9.29,0,0,0,1.23-.85c8.87-7.13,19.15-9.89,30.36-9.88,9.51,0,18.48,2.55,27.4,5.49,15.06,5,30.11,9.94,45.28,14.52,10.42,3.14,11.13,15.57,3.76,20.5-4.66,3.12-9,6.66-13.62,9.94-12,8.58-23.7,17.58-36.08,25.56-11.37,7.34-24,11-37.83,8.59-1.71-.31-3.39-.81-5.07-1.26s-3.33-.95-5.88-1.68a23.56,23.56,0,0,0,1.88,1.61c13.84,9,20.89,22.44,21.82,38.31,1.2,20.68.7,41.45,1.07,62.18C221.62,293.06,219.17,297.63,213,300Zm-38.14-93.88c-1.91-13.84-7.17-26-18.3-34.84a10.32,10.32,0,0,0-7.81-1.94c-3.27.82-3.54,4.56-3.35,7.6.93,14.47,7.24,26.27,18.1,35.72a10.81,10.81,0,0,0,2.91,1.69c4.28,1.82,7.44.09,8.23-4.5A35.56,35.56,0,0,0,174.86,206.11Zm-15.58-94.38a72.7,72.7,0,0,0-.93-7.45c-.78-3.78-1.56-8.21-6.15-8.91s-6.8,3.3-8.59,6.66a52.49,52.49,0,0,0-5.38,34.86,17,17,0,0,0,2.36,5.84c2.14,3.43,5.24,4,8.18,1.24a25.91,25.91,0,0,0,5-6.86C157.71,129.65,159,121.53,159.28,111.73ZM95.84,125.87c-4.34.17-7.85.07-9.57,3.53s.37,6.18,2.4,8.49c9.24,10.5,20.89,16.57,34.85,17.53,2.61.18,6.23-1.14,7.83-3,2.26-2.69.19-6.05-1.86-8.46C120.41,133.18,108.49,127.8,95.84,125.87Zm77,37.82c6-1.12,11.76-1.5,17-3.33a52.87,52.87,0,0,0,13.9-7.65c3.26-2.43,2.58-6.31-1-8.34a22.57,22.57,0,0,0-7.71-2.65,53.47,53.47,0,0,0-31.69,5,23.54,23.54,0,0,0-5.53,3.8c-4,3.7-3.47,8,1.65,9.95C163.76,162.14,168.52,162.7,172.83,163.69Zm-44,1.83a19.14,19.14,0,0,0-3.84,1,51.13,51.13,0,0,0-27.13,26.63c-1.45,3.16-2.75,6.91.27,9.81s6.66,1.45,9.83,0a52.43,52.43,0,0,0,26.13-26.22A16.9,16.9,0,0,0,135.4,172C136,168,133.84,165.55,128.86,165.52Z"/></g></g></svg>