<?xml version="1.0" encoding="utf-8"?>
<!-- Generator: Adobe Illustrator 23.0.4, SVG Export Plug-In . SVG Version: 6.00 Build 0)  -->
<svg version="1.1" id="Layer_1" xmlns="http://www.w3.org/2000/svg" xmlns:xlink="http://www.w3.org/1999/xlink" x="0px" y="0px"
	 viewBox="0 0 1083 616.3" style="enable-background:new 0 0 1083 616.3;" xml:space="preserve">
<style type="text/css">
	.st0{fill:#201D1D;}
	.st1{font-family:'ArialMT';}
	.st2{font-size:30px;}
	.st3{fill:#12436A;}
	.st4{font-size:25px;}
	.st5{letter-spacing:-1;}
	.st6{enable-background:new    ;}
	.st7{fill:#E37C20;}
	.st8{fill:#CF1F27;}
	.st9{fill:#68401F;}
</style>
<title>Asset 2</title>
<g>
	<g id="Layer_1-2">
		<g id="jtMZoQ.tif">
			
				<image style="overflow:visible;enable-background:new    ;" width="1054" height="600" xlink:href="A0819EC1894983C4.png"  transform="matrix(1.0317 0 0 1.0317 0.1253 -6.728313e-06)">
			</image>
		</g>
		<g>
			<text transform="matrix(1 0 0 1 62.73 362.04)" class="st0 st1 st2">USB</text>
		</g>
		<g>
			<text transform="matrix(1 0 0 1 975.38 467.2)" class="st3 st1 st2">SE</text>
			<text transform="matrix(1 0 0 1 1015.4 467.2)" class="st3 st1 st2">R</text>
			<text transform="matrix(1 0 0 1 1036.52 467.2)" class="st3 st1 st2">VO</text>
		</g>
		<g>
			<text transform="matrix(1 0 0 1 472.58 202.99)" class="st0 st1 st4">LiPo B</text>
			<text transform="matrix(1 0 0 1 546.24 202.99)" class="st0 st1 st4 st5">A</text>
			<text transform="matrix(1 0 0 1 561.06 202.99)" class="st0 st1 st4">TTE</text>
			<text transform="matrix(1 0 0 1 608.27 202.99)" class="st0 st1 st4">RY</text>
		</g>
		<g class="st6">
			<text transform="matrix(1 0 0 1 532.8395 307.04)" class="st7 st1 st2">Pin14</text>
		</g>
		<g>
			<text transform="matrix(1 0 0 1 258.018 552.9619)" class="st8 st1 st2">3V</text>
			<g class="st6">
				<text transform="matrix(1 0 0 1 355.211 551.7092)" class="st9 st1 st2">GND</text>
			</g>
		</g>
	</g>
</g>
</svg>
